<?xml version="1.0" standalone="no"?>
<!DOCTYPE svg PUBLIC "-//W3C//DTD SVG 20010904//EN"
 "http://www.w3.org/TR/2001/REC-SVG-20010904/DTD/svg10.dtd">
<svg version="1.0" xmlns="http://www.w3.org/2000/svg"
 width="512.000000pt" height="512.000000pt" viewBox="0 0 512.000000 512.000000"
 preserveAspectRatio="xMidYMid meet">
<metadata>
Created by potrace 1.14, written by Peter Selinger 2001-2017
</metadata>
<g transform="translate(0.000000,512.000000) scale(0.100000,-0.100000)"
fill="#000000" stroke="none">
<path d="M950 5072 c-8 -2 -31 -11 -50 -20 -19 -8 -37 -16 -40 -16 -12 -3 -66
-42 -81 -58 -9 -10 -21 -18 -28 -18 -6 0 -10 -3 -8 -7 3 -11 -40 -53 -47 -45
-3 3 -6 0 -6 -7 0 -16 -26 -42 -34 -34 -3 4 -6 2 -6 -4 0 -5 -81 -91 -180
-189 -99 -99 -180 -179 -180 -177 0 1 -19 -18 -42 -44 -68 -74 -76 -82 -82
-76 -3 4 -6 -1 -6 -10 0 -10 -4 -17 -9 -17 -16 0 -63 -79 -86 -142 -12 -35
-23 -88 -24 -118 -2 -30 -5 -58 -7 -62 -2 -3 0 -9 6 -13 5 -3 10 -17 10 -29 0
-26 40 -129 52 -134 4 -2 8 -8 8 -13 0 -15 44 -61 522 -539 246 -246 450 -445
453 -442 3 3 5 1 5 -4 0 -13 791 -804 804 -804 5 0 7 -2 4 -5 -7 -8 55 -72 64
-67 5 2 8 -4 8 -12 0 -9 7 -16 17 -16 9 0 14 -2 11 -5 -5 -6 1163 -1175 1175
-1175 4 0 7 -3 5 -8 -5 -9 59 -71 67 -64 3 3 5 0 5 -7 0 -15 70 -80 87 -81 6
0 13 -4 15 -8 4 -11 178 -94 278 -132 47 -18 99 -39 115 -45 48 -20 178 -63
205 -69 14 -2 42 -11 62 -20 21 -9 40 -16 43 -16 3 0 7 -1 10 -1 3 -1 8 -2 13
-3 4 -1 34 -10 67 -21 62 -19 73 -22 103 -29 9 -3 17 -5 17 -6 0 -1 13 -4 29
-6 16 -3 38 -11 49 -19 11 -7 25 -11 32 -9 7 3 16 0 20 -5 3 -6 11 -9 16 -6 5
4 15 3 22 -2 6 -4 18 -9 25 -10 30 -7 47 -12 47 -13 0 -1 10 -3 23 -6 12 -2
53 -19 90 -38 37 -19 77 -36 87 -38 11 -1 22 -6 25 -10 10 -12 193 -58 233
-58 103 0 137 73 101 220 -3 14 -8 37 -11 52 -3 16 -9 28 -12 28 -4 0 -8 6 -8
14 0 8 -7 29 -15 47 -63 135 -78 170 -93 219 -9 30 -18 66 -21 78 -3 13 -12
43 -20 65 -8 23 -17 51 -19 62 -4 23 -19 75 -33 122 -6 17 -8 34 -4 37 3 3 0
6 -6 6 -7 0 -12 8 -12 18 0 9 -7 36 -15 60 -9 24 -13 47 -10 52 3 4 2 10 -2
12 -5 1 -28 64 -52 138 -24 74 -47 140 -51 145 -4 6 -22 48 -40 95 -19 47 -38
89 -42 95 -4 5 -8 17 -8 27 0 10 -4 18 -10 18 -5 0 -15 18 -21 40 -7 22 -15
40 -19 40 -4 0 -13 13 -20 29 -6 16 -25 44 -41 63 -63 72 -1720 1724 -1724
1719 -3 -2 -5 0 -5 5 0 12 -1388 1404 -1400 1404 -4 0 -10 6 -13 13 -9 23
-109 83 -167 100 -51 15 -183 21 -220 9z"/>
</g>
</svg>
